<?xml version="1.0" encoding="utf-8"?>
<svg viewBox="0 0 500 500" xmlns="http://www.w3.org/2000/svg">
  <g transform="matrix(-0.693713, 0, 0, -0.719291, 179.28743, 187.763229)" style="">
    <g>
      <g>
        <path fill="#000000" d="M34.3,38.5l25,25l-1.8,1.7L55.9,67l5.7,5.8l5.8,5.8l-7.2,11.8c-3.9,6.5-7.3,12.1-7.5,12.5s18.9,19.7,50.5,51.3L154,205l-6.4,6.4c-5.1,5.2-6.4,6.7-6.6,8.1c-0.7,3.8,2.8,7.3,6.6,6.6c1.5-0.3,3.8-2.4,16.7-15.2l14.9-14.9l14,14l14,14l-4.7,4.7c-5.1,5.2-5.7,6.1-5.7,8.3c0,4.2,4.5,6.9,8.3,4.9c1.5-0.8,39.6-39,40.4-40.5c0.3-0.6,0.5-1.9,0.5-2.9c0-2.2-1.7-4.5-3.8-5.1c-2.9-0.8-4.4,0-9.7,5.3l-5,5l-14-14l-14-14l14.7-14.7c8.1-8.1,14.9-15.2,15.2-15.8c1.8-3.5-1.1-8-5.1-8c-2.3,0-3.6,0.9-9.7,7.1l-5.8,5.8l-50.8-50.8l-50.8-50.8l-12.5,7.5l-12.4,7.5l-5.7-5.7l-5.7-5.7L68.9,54L67,55.8L46.5,35.4L26,14.9l-7.7-0.7c-4.2-0.4-8-0.7-8.3-0.7S20.6,24.7,34.3,38.5z M176.8,134.6l23.7,23.7l-19.4,19.4l-19.3,19.3l-3-3l-3-3l6.5-6.6c5.4-5.4,6.6-7,6.9-8.3c0.7-3.8-2.8-7.3-6.6-6.6c-1.4,0.2-3,1.6-8.3,6.9l-6.7,6.5l-2.6-2.6l-2.6-2.6l6.5-6.7c5.3-5.4,6.6-7,6.9-8.3c0.7-3.8-2.9-7.3-6.6-6.6c-1.4,0.2-2.9,1.5-8.3,6.9l-6.6,6.5l-2.5-2.5c-1.4-1.4-2.6-2.7-2.6-3c0-0.3,2.8-3.3,6.3-6.7c3.7-3.7,6.4-6.8,6.7-7.7c1.4-4.2-3.6-8.6-7.6-6.6c-0.6,0.3-3.9,3.3-7.4,6.8l-6.4,6.4l-3.3-3.4l-3.4-3.3l19.2-19.2c10.6-10.6,19.3-19.2,19.5-19.2S163.8,121.5,176.8,134.6z"/>
      </g>
    </g>
  </g>
  <path d="M 462.101 368.689 C 455.499 384.653 447.685 399.349 438.632 412.86 C 426.292 431.278 416.189 444.028 408.401 451.107 C 396.331 462.727 383.397 468.68 369.548 469.018 C 359.606 469.018 347.617 466.056 333.66 460.049 C 319.657 454.068 306.789 451.107 295.023 451.107 C 282.682 451.107 269.447 454.068 255.29 460.049 C 241.112 466.056 229.692 469.187 220.959 469.498 C 207.678 470.09 194.44 463.969 181.228 451.107 C 172.795 443.407 162.246 430.206 149.61 411.506 C 136.05 391.536 124.904 368.378 116.171 341.978 C 106.82 313.461 102.131 285.848 102.131 259.114 C 102.131 228.491 108.452 202.078 121.114 179.945 C 131.064 162.167 144.301 148.143 160.869 137.847 C 177.437 127.552 195.338 122.305 214.616 121.97 C 225.165 121.97 238.998 125.386 256.187 132.099 C 273.329 138.835 284.337 142.25 289.162 142.25 C 292.769 142.25 304.997 138.256 325.725 130.294 C 345.326 122.91 361.869 119.852 375.422 121.056 C 412.146 124.159 439.736 139.315 458.085 166.618 C 425.241 187.45 408.994 216.63 409.317 254.062 C 409.614 283.219 419.717 307.482 439.575 326.747 C 448.574 335.687 458.625 342.598 469.806 347.505 C 467.381 354.868 464.821 361.92 462.101 368.689 Z M 377.874 21.726 C 377.874 44.578 369.899 65.916 354.001 85.666 C 334.817 109.144 311.614 122.712 286.451 120.572 C 286.131 117.83 285.944 114.944 285.944 111.912 C 285.944 89.973 295.068 66.495 311.27 47.298 C 319.357 37.578 329.644 29.493 342.119 23.049 C 354.567 16.696 366.342 13.184 377.416 12.584 C 377.739 15.639 377.874 18.693 377.874 21.724 L 377.874 21.726 Z" style=""/>
</svg>